<?xml version="1.0" encoding="UTF-8" standalone="no"?>
<!-- Created with Inkscape (http://www.inkscape.org/) -->

<svg
   xmlns:dc="http://purl.org/dc/elements/1.1/"
   xmlns:cc="http://creativecommons.org/ns#"
   xmlns:rdf="http://www.w3.org/1999/02/22-rdf-syntax-ns#"
   xmlns:svg="http://www.w3.org/2000/svg"
   xmlns="http://www.w3.org/2000/svg"
   xmlns:sodipodi="http://sodipodi.sourceforge.net/DTD/sodipodi-0.dtd"
   xmlns:inkscape="http://www.inkscape.org/namespaces/inkscape"
   width="64mm"
   height="24mm"
   viewBox="0 0 226.77165 85.03937"
   id="svg2"
   version="1.1"
   inkscape:version="0.91 r13725"
   sodipodi:docname="logo1.svg">
  <defs
     id="defs4" />
  <sodipodi:namedview
     id="base"
     pagecolor="#ffffff"
     bordercolor="#666666"
     borderopacity="1.0"
     inkscape:pageopacity="0.0"
     inkscape:pageshadow="2"
     inkscape:zoom="2.8"
     inkscape:cx="138.45863"
     inkscape:cy="68.962788"
     inkscape:document-units="px"
     inkscape:current-layer="layer1"
     showgrid="false"
     inkscape:window-width="1301"
     inkscape:window-height="744"
     inkscape:window-x="65"
     inkscape:window-y="24"
     inkscape:window-maximized="1" />
  <metadata
     id="metadata7">
    <rdf:RDF>
      <cc:Work
         rdf:about="">
        <dc:format>image/svg+xml</dc:format>
        <dc:type
           rdf:resource="http://purl.org/dc/dcmitype/StillImage" />
        <dc:title></dc:title>
      </cc:Work>
    </rdf:RDF>
  </metadata>
  <g
     inkscape:label="Layer 1"
     inkscape:groupmode="layer"
     id="layer1"
     transform="translate(0,-967.32283)">
    <rect
       style="fill:#000000"
       id="rect3413"
       width="365.71429"
       height="151.42857"
       x="-41.42857"
       y="1117.005" />
    <rect
       style="fill:#ffffff"
       id="rect3371"
       width="32.857143"
       height="28.214285"
       x="-201.07143"
       y="944.86218" />
    <g
       id="g3339"
       transform="matrix(1.6551298,0,0,1.6219425,2.9719829,968.08619)"
       style="fill:#ffffff">
      <g
         id="g3341"
         style="fill:#ffffff">
        <path
           id="path3343"
           d="m 47.68063,19.922268 c 2.117847,5.888864 0.940838,10.563269 -1.514798,16.069736 -1.155738,2.591599 -2.615684,4.974987 -4.329082,7.237812 -2.469036,3.260781 -4.849464,4.600869 -8.928352,5.055241 -5.56709,0.620148 -12.339981,0.734703 -17.25018,-2.183209 C 11.174703,43.437492 5.22616,37.180797 3.9778613,32.12479 1.0686893,20.341726 6.6786065,6.1316018 19.633974,3.900425 25.46624,2.8959907 31.785685,3.0397568 36.670029,6.5978723 38.675644,8.0589095 40.6381,9.589325 42.609772,11.09595 c 3.393192,2.592859 4.5755,5.664811 6.033272,9.482143 0.51144,1.339262 2.687549,0.758093 2.169628,-0.598139 C 49.644154,16.920071 48.829754,13.652096 46.489738,11.270216 44.020966,8.7572765 40.652496,6.7023873 37.805649,4.6550632 32.242958,0.6546283 25.869631,0.4753128 19.172548,1.658887 4.9422245,4.1738095 -1.5938398,19.655264 1.8082323,32.722931 3.3192642,38.526939 8.9768419,44.379745 13.870595,47.63612 c 5.999022,3.991836 14.451472,3.697895 21.313408,2.723648 5.987564,-0.850102 9.832851,-6.901077 12.343727,-11.915859 3.233749,-6.458516 4.819145,-12.17771 2.322529,-19.11978 -0.486379,-1.352419 -2.661348,-0.769127 -2.169629,0.598139 l 0,0 z"
           class="st0"
           inkscape:connector-curvature="0"
           style="fill:#ffffff" />
      </g>
      <g
         id="g3345"
         style="fill:#ffffff">
        <path
           id="path3347"
           d="m 24.188776,2.8080897 c 0.197311,0.9224882 0.25383,1.8419847 0.204561,2.7837591 -0.0757,1.4470706 2.174511,1.4429412 2.25,0 0.05958,-1.1389027 -0.04647,-2.2670205 -0.284933,-3.3818982 -0.3027,-1.415202 -2.472168,-0.8163163 -2.169628,0.5981391 l 0,0 z"
           class="st0"
           inkscape:connector-curvature="0"
           style="fill:#ffffff" />
      </g>
      <g
         id="g3349"
         style="fill:#ffffff">
        <path
           id="path3351"
           d="m 2.1075187,26.883886 c 1.2777777,0 2.5555553,0 3.833333,0 1.4477677,0 1.4501657,-2.25 0,-2.25 -1.2777777,0 -2.5555553,0 -3.833333,0 -1.4477678,0 -1.4501657,2.25 0,2.25 l 0,0 z"
           class="st0"
           inkscape:connector-curvature="0"
           style="fill:#ffffff" />
      </g>
      <g
         id="g3353"
         style="fill:#ffffff">
        <path
           id="path3355"
           d="m 26.899185,49.09222 c 0,-1.194446 0,-2.388889 0,-3.583336 0,-1.447765 -2.25,-1.450164 -2.25,0 0,1.194447 0,2.38889 0,3.583336 0,1.447766 2.25,1.450165 2.25,0 l 0,0 z"
           class="st0"
           inkscape:connector-curvature="0"
           style="fill:#ffffff" />
      </g>
      <g
         id="g3357"
         style="fill:#ffffff">
        <path
           id="path3359"
           d="m 49.355965,24.980639 c -0.996823,-0.111437 -1.995438,-0.174481 -2.998349,-0.189293 -1.448371,-0.02139 -1.448925,2.228601 0,2.25 1.002923,0.01481 2.001538,0.07786 2.998349,0.189293 0.604763,0.06761 1.125,-0.565455 1.125,-1.125 0,-0.664382 -0.51849,-1.0572 -1.125,-1.125 l 0,0 z"
           class="st0"
           inkscape:connector-curvature="0"
           style="fill:#ffffff" />
      </g>
      <g
         id="g3361"
         style="fill:#ffffff">
        <path
           id="path3363"
           d="m 17.160593,20.220692 c 0.16374,0.755756 0.09682,1.765016 -0.481501,2.361492 -0.883584,0.911329 -1.05571,-0.812735 -1.104533,-1.355547 -0.02849,-0.316792 -0.143723,-1.011128 -0.04668,-1.31892 0.149333,-0.473648 -0.0092,-0.265978 0.436034,-0.410157 0.267846,-0.08674 0.843802,-0.0027 1.109334,0.129843 0.381346,0.190302 0.254421,-0.01277 0.205223,0.575764 -0.120617,1.4429 2.130051,1.434906 2.25,0 0.185528,-2.219387 -1.729773,-3.097181 -3.724751,-2.940075 -2.637401,0.207699 -2.677566,2.601368 -2.392799,4.700279 0.247731,1.825943 1.591757,3.769472 3.70882,3.011608 2.080721,-0.744856 2.622159,-3.452297 2.210482,-5.352426 -0.306452,-1.414452 -2.475986,-0.815886 -2.169628,0.598139 l 0,0 z"
           class="st0"
           inkscape:connector-curvature="0"
           style="fill:#ffffff" />
      </g>
      <g
         id="g3365"
         style="fill:#ffffff">
        <path
           id="path3367"
           d="m 27.65831,18.208418 c 0.04668,1.267151 -0.08169,2.21213 -1.015604,3.140337 -0.857403,0.852157 -2.039845,0.667398 -2.448528,-0.560806 -0.375639,-1.128903 -0.428004,-2.500693 0.346246,-3.443078 0.995466,-1.211639 2.620857,-1.158874 3.148434,0.478713 0.442232,1.372682 2.615437,0.785646 2.169628,-0.598139 -0.745821,-2.315012 -3.094454,-3.859368 -5.43651,-2.616719 -2.503494,1.328305 -3.009377,3.739892 -2.485849,6.336266 0.415155,2.058929 2.368867,3.721209 4.577041,3.168926 2.517241,-0.629583 3.477785,-3.661865 3.395142,-5.9055 -0.05317,-1.44351 -2.303427,-1.450503 -2.25,0 l 0,0 z"
           class="st0"
           inkscape:connector-curvature="0"
           style="fill:#ffffff" />
      </g>
      <g
         id="g3369"
         style="fill:#ffffff">
        <path
           id="path3371"
           d="m 35.539661,19.762344 c 0.733391,0.323063 0.968159,0.954087 0.685292,1.705019 -0.105572,0.280257 -0.422375,0.926148 -0.738686,1.011134 -0.396259,0.106468 -0.552727,-0.180933 -0.83728,-0.455456 -0.574001,-0.553765 -1.209568,-1.213314 -1.132713,-2.079792 0.04859,-0.547804 0.160812,-0.623513 0.634479,-0.746784 0.396301,-0.103137 0.992683,-0.06769 1.261108,0.256757 0.923806,1.1166 2.50779,-0.482858 1.590992,-1.59099 -1.153942,-1.394766 -4.162838,-1.298508 -5.211286,0.190035 -1.358109,1.928183 -0.07091,4.296663 1.395639,5.684727 0.724926,0.68613 1.575642,1.30496 2.626644,1.043909 0.98618,-0.244949 1.815117,-1.126398 2.284531,-1.999901 0.935242,-1.740322 0.49712,-4.115595 -1.423103,-4.961468 -1.312859,-0.578325 -2.459259,1.359736 -1.135617,1.94281 l 0,0 z"
           class="st0"
           inkscape:connector-curvature="0"
           style="fill:#ffffff" />
      </g>
      <g
         id="g3373"
         style="fill:#ffffff">
        <path
           id="path3375"
           d="m 31.565866,29.26963 c 0.0055,0.673596 0.432696,3.325409 0.03102,3.805161 -0.508929,0.607845 -3.154293,0.236194 -3.839518,0.242996 -2.898584,0.02875 -5.797169,0.05751 -8.695753,0.08627 0.375,0.375 0.75,0.75 1.125,1.125 -0.119635,-1.412651 -0.244469,-2.850521 -0.171799,-4.269735 0.133553,-2.608185 2.202166,-2.923267 4.336993,-2.925644 2.308109,-0.0026 5.944961,-0.838699 7.052082,1.857929 0.542427,1.321198 2.720098,0.742653 2.169626,-0.598138 -1.85413,-4.516131 -7.09424,-3.77273 -11.177979,-3.499667 -5.194755,0.347353 -4.802045,5.383656 -4.458923,9.435255 0.05093,0.60141 0.474108,1.131455 1.125,1.125 2.557575,-0.02538 5.115149,-0.05075 7.672724,-0.07613 1.943395,-0.01928 4.347998,0.349491 6.221968,-0.179657 0.371757,-0.104972 0.690067,-0.405994 0.785743,-0.785743 0.409226,-1.624287 0.08733,-3.684529 0.07382,-5.342903 -0.0118,-1.447163 -2.261824,-1.450581 -2.249999,-1e-6 l 0,0 z"
           class="st0"
           inkscape:connector-curvature="0"
           style="fill:#ffffff" />
      </g>
      <g
         id="g3377"
         style="fill:#ffffff">
        <path
           id="path3379"
           d="m 32.407116,27.468567 c 0.455444,-0.995384 1.877174,-0.737694 2.79499,-0.732985 0.703183,0.0036 1.797112,-0.200843 2.460194,0.01942 1.333878,0.44309 1.431709,3.759193 1.085056,4.923756 0.261917,-0.261916 0.523831,-0.523829 0.785744,-0.785744 -0.871094,0.223511 -2.079502,0.05325 -2.984123,0.06018 -1.042988,0.008 -2.085865,0.0013 -3.128765,-0.01269 -1.448346,-0.01945 -1.449065,2.23054 0,2.250002 1.460125,0.01961 2.920131,0.02178 4.380207,-0.0027 0.813957,-0.01368 2.160259,0.241703 2.827247,-0.414425 0.614403,-0.604401 0.388424,-1.833702 0.386288,-2.587214 -0.0031,-1.097499 0.03445,-2.244522 -0.33889,-3.295717 -0.773327,-2.177431 -2.544651,-2.389791 -4.578934,-2.400224 -2.006717,-0.01029 -4.628832,-0.349278 -5.631824,1.842781 -0.598169,1.307306 1.340458,2.452062 1.94281,1.135618 l 0,0 z"
           class="st0"
           inkscape:connector-curvature="0"
           style="fill:#ffffff" />
      </g>
      <g
         id="g3381"
         style="fill:#ffffff">
        <path
           id="path3383"
           d="m 20.856111,25.787521 c -1.496194,-1.797334 -3.947534,-1.513567 -6.067514,-1.379345 -1.980995,0.125424 -3.506663,0.900372 -4.331121,2.790419 -0.5297578,1.214455 -1.2558253,4.636005 0.130817,5.543917 0.84961,0.556289 2.54118,0.236156 3.468118,0.242279 1.568789,0.01037 3.137576,0.0108 4.706385,0.0047 1.447504,-0.0056 1.450386,-2.255607 0,-2.249998 -1.232635,0.0048 -2.465248,0.0059 -3.697883,6.52e-4 -1.079483,-0.0046 -2.579504,0.248574 -3.609741,-0.05388 0.261915,0.261915 0.52383,0.52383 0.785744,0.785743 -0.55146,-1.89785 0.157264,-4.546797 2.307399,-4.800384 1.385284,-0.16338 3.751278,-0.453005 4.716806,0.706857 0.927323,1.113966 2.511519,-0.485183 1.59099,-1.59099 l 0,0 z"
           class="st0"
           inkscape:connector-curvature="0"
           style="fill:#ffffff" />
      </g>
    </g>
    <path
       style="fill:#ffffff"
       d="M 42.744344,83.049744 C 32.529212,82.212687 25.39737,78.723504 17.083117,70.495247 9.061351,62.556447 5.8653586,56.226897 4.8746221,46.316747 4.1101718,38.670094 5.8101929,29.711678 9.3560778,22.701311 12.046555,17.382122 16.78545,12.078145 21.818442,8.7528915 27.756251,4.829834 33.816996,3.1611678 43.363987,2.8208941 54.056184,2.439803 58.797048,3.8888659 68.433323,10.483429 c 12.012339,8.220615 13.929128,10.394742 17.352671,19.682352 1.077879,2.924135 1.281615,3.834609 0.969797,4.33391 -0.292432,0.468259 -0.264993,1.360145 0.105871,3.441038 1.306557,7.331018 -0.07888,14.1483 -4.865857,23.94324 -5.002914,10.236778 -10.924718,16.96396 -17.062793,19.383364 -3.594707,1.4169 -15.236553,2.352089 -22.188668,1.782411 z m 1.538936,-9.532211 c 0.460268,-0.711154 2.311371,-0.545704 2.734214,0.244379 0.20334,0.379942 0.369707,1.906728 0.369707,3.392857 l 0,2.70205 1.517858,-0.0037 c 6.060617,-0.01471 13.67186,-1.306957 16.633285,-2.824018 6.891732,-3.530453 15.87195,-18.3764 17.908172,-29.605496 0.221718,-1.222689 0.30566,-2.380768 0.186539,-2.573507 -0.119118,-0.192747 -1.101589,-0.350443 -2.183268,-0.350443 -2.357114,0 -3.3483,-0.458332 -3.3483,-1.548279 0,-1.323464 0.683907,-1.666007 3.326264,-1.666007 l 2.469125,0 -0.238585,-1.696428 C 83.527073,38.655926 83.100166,36.700508 82.709609,35.243589 82.319055,33.78667 82.09418,32.163618 82.209887,31.636808 82.51513,30.247052 79.605473,24.742248 77.105394,21.979572 75.102219,19.765993 67.398676,13.726598 62.855187,10.807749 58.810562,8.209384 53.520894,6.5074797 48.637201,6.2332369 l -1.785714,-0.1002768 0.119661,1.8286557 c 0.152053,2.3237312 -0.358125,3.3237742 -1.695639,3.3237742 -1.400265,0 -1.759115,-0.577932 -1.886047,-3.0375096 l -0.109403,-2.1199467 -1.785715,0.09748 C 22.615606,7.2559769 10.641344,19.097006 8.2971364,39.053247 l -0.2202515,1.875 2.6653621,0 c 3.373884,0 4.373622,0.738075 3.418103,2.523479 -0.318013,0.594214 -0.767455,0.690807 -3.214286,0.690807 -1.5645173,0 -2.8445769,0.124754 -2.8445769,0.277225 0,0.152475 0.1642582,1.639082 0.3650185,3.303571 0.9331661,7.736822 3.5869724,12.770533 10.5129564,19.940872 7.217221,7.47185 13.509988,10.806968 22.157739,11.743436 l 2.5,0.270725 0.178572,-2.8572 c 0.09821,-1.571461 0.308593,-3.058093 0.467507,-3.303629 z"
       id="path3419"
       inkscape:connector-curvature="0"
       transform="translate(0,967.32283)" />
    <path
       style="fill:#ffffff"
       d="m 33.351477,57.792878 c -0.367159,-0.405706 -0.607133,-1.259703 -0.607133,-2.16061 l 0,-1.489735 -5.830602,0 c -5.632885,0 -5.856935,-0.02803 -6.607143,-0.82659 -1.461324,-1.555508 -0.875657,-7.240696 1.020188,-9.903164 0.865351,-1.215274 3.892139,-2.832417 5.312196,-2.838186 0.82647,-0.0034 0.835308,-0.02958 0.233899,-0.694133 -1.673203,-1.848869 -2.204506,-7.110358 -0.929205,-9.201918 1.672342,-2.742728 7.531788,-2.221048 8.786665,0.782298 0.731514,1.750759 0.164047,5.846014 -1.068052,7.70784 -0.843781,1.275039 -0.867571,1.402424 -0.26192,1.402424 0.366388,0 1.377699,0.378329 2.247356,0.84073 1.248326,0.663741 1.767023,0.767259 2.463907,0.491729 0.485491,-0.191951 3.695211,-0.369386 7.132711,-0.394301 4.976188,-0.03607 6.503218,0.06859 7.492421,0.513489 1.181231,0.531269 1.301072,0.518988 2.433297,-0.24936 0.654979,-0.444483 1.900439,-0.914556 2.767686,-1.044607 l 1.576807,-0.236457 -1.619743,-1.574212 c -1.930432,-1.876166 -2.989036,-4.03592 -2.999768,-6.120112 -0.0064,-1.242233 0.217604,-1.769108 1.214715,-2.857143 1.207421,-1.317526 1.256335,-1.334041 3.950989,-1.334041 l 2.728436,0 1.73695,1.820829 c 2.771571,2.905419 2.784814,6.018031 0.03728,8.76556 l -1.318325,1.318328 1.624625,0.239234 c 2.374307,0.349627 3.829103,1.154983 4.744,2.626214 0.700385,1.126279 0.825978,1.883515 0.933968,5.631159 0.162989,5.656265 0.361957,5.491533 -6.632808,5.491533 l -5.099103,0 0,1.194647 c 0,0.76051 -0.273,1.441889 -0.751239,1.875 -0.701065,0.634915 -1.531122,0.687501 -12.42858,0.787391 -11.047401,0.101263 -11.710097,0.07085 -12.284477,-0.563836 z m 21.833864,-3.078164 c 0.25676,-0.158687 0.416146,-1.280468 0.416146,-2.928915 0,-3.585543 -0.839314,-5.279917 -3.113809,-6.286034 -1.47816,-0.653861 -2.189727,-0.710482 -7.209538,-0.573686 -5.870806,0.159986 -6.929686,0.420521 -8.427496,2.073569 -0.594989,0.656655 -0.733445,1.396297 -0.833914,4.45484 l -0.120473,3.667455 9.436468,-0.07502 c 5.190057,-0.04126 9.623734,-0.190755 9.852616,-0.332211 z m 12.20186,-5.583652 c 0,-2.500174 -0.681189,-4.397405 -1.792378,-4.992096 -0.968375,-0.518259 -7.646418,-0.345132 -8.203164,0.212665 -0.277915,0.278441 -0.133011,0.831892 0.514285,1.964286 0.554954,0.970842 0.902879,2.136943 0.905525,3.034949 0.0025,0.802084 0.111447,1.565477 0.2424,1.696429 0.13095,0.130952 2.059522,0.238095 4.285715,0.238095 l 4.047617,0 0,-2.154328 z m -34.848809,0.993614 c 0.09064,-0.441964 0.268194,-1.440875 0.394565,-2.219802 0.126372,-0.778927 0.46891,-1.878683 0.761197,-2.443904 0.292287,-0.56522 0.426213,-1.133273 0.297614,-1.262341 -0.128599,-0.129067 -1.868128,-0.282031 -3.86562,-0.339919 -3.162606,-0.09165 -3.784441,-0.01 -4.813283,0.632379 -1.385623,0.865082 -2.549457,3.182078 -2.560677,5.097873 l -0.0078,1.339285 4.814625,0 c 4.706019,0 4.818341,-0.01812 4.979423,-0.803571 z M 30.806361,37.327755 c 0.489735,-0.541151 0.674798,-1.294036 0.680353,-2.767857 l 0.0076,-2.024508 -1.428571,0 -1.428572,0 0.06361,2.253899 c 0.05788,2.050876 0.498512,3.281815 1.174767,3.281815 0.141933,0 0.560785,-0.334507 0.930782,-0.743349 z m 31.739162,-0.764688 c 0.974103,-1.390732 0.715525,-2.928339 -0.670207,-3.985288 -3.024179,-2.306653 -4.784904,0.270165 -2.315247,3.38836 1.245275,1.572288 2.172436,1.75767 2.985454,0.596928 z"
       id="path3421"
       inkscape:connector-curvature="0"
       transform="translate(0,967.32283)" />
    <text
       xml:space="preserve"
       style="font-style:normal;font-weight:normal;font-size:99.63406372px;line-height:125%;font-family:sans-serif;letter-spacing:0px;word-spacing:0px;fill:#ffffff;fill-opacity:1;stroke:none;stroke-width:1px;stroke-linecap:butt;stroke-linejoin:miter;stroke-opacity:1;"
       x="100.18736"
       y="955.01428"
       id="text3427"
       sodipodi:linespacing="125%"
       transform="scale(0.90934742,1.0996897)"><tspan
         sodipodi:role="line"
         id="tspan3429"
         x="100.18736"
         y="955.01428">HR</tspan></text>
  </g>
  <style
     id="style3337"
     type="text/css">
	.st0{fill:#231F20;}
</style>
</svg>
