<?xml version="1.0" encoding="UTF-8" standalone="no"?>
<svg
   xmlns:dc="http://purl.org/dc/elements/1.1/"
   xmlns:cc="http://creativecommons.org/ns#"
   xmlns:rdf="http://www.w3.org/1999/02/22-rdf-syntax-ns#"
   xmlns:svg="http://www.w3.org/2000/svg"
   xmlns="http://www.w3.org/2000/svg"
   xmlns:sodipodi="http://sodipodi.sourceforge.net/DTD/sodipodi-0.dtd"
   xmlns:inkscape="http://www.inkscape.org/namespaces/inkscape"
   height="24"
   id="Layer_1"
   version="1.1"
   viewBox="0 0 64 24"
   width="64"
   xml:space="preserve"
   inkscape:version="0.91 r13725"
   sodipodi:docname="asLogoWhite.svg"><metadata
     id="metadata3398"><rdf:RDF><cc:Work
         rdf:about=""><dc:format>image/svg+xml</dc:format><dc:type
           rdf:resource="http://purl.org/dc/dcmitype/StillImage" /><dc:title></dc:title></cc:Work></rdf:RDF></metadata><defs
     id="defs3396" /><sodipodi:namedview
     pagecolor="#ffffff"
     bordercolor="#666666"
     borderopacity="1"
     objecttolerance="10"
     gridtolerance="10"
     guidetolerance="10"
     inkscape:pageopacity="0"
     inkscape:pageshadow="2"
     inkscape:window-width="1301"
     inkscape:window-height="744"
     id="namedview3394"
     showgrid="false"
     borderlayer="true"
     inkscape:zoom="9.484375"
     inkscape:cx="9.8296056"
     inkscape:cy="9.8978584"
     inkscape:window-x="65"
     inkscape:window-y="24"
     inkscape:window-maximized="1"
     inkscape:current-layer="Layer_1"
     showborder="true" /><style
     type="text/css"
     id="style3388"><![CDATA[
	.st0{fill:#319997;}
	.st1{fill-rule:evenodd;clip-rule:evenodd;fill:#319997;}
]]></style><path
     class="st0"
     d="m 4.853956,19.491875 c 1.9014629,1.901417 4.5288305,3.077714 7.430876,3.077714 2.902044,0 5.529129,-1.176297 7.430874,-3.077714 1.901464,-1.901461 3.077716,-4.528876 3.077716,-7.430875 0,-2.9019995 -1.176252,-5.5294134 -3.077716,-7.4308754 -1.901745,-1.9015547 -4.52888,-3.0778524 -7.430874,-3.0778524 -2.9020012,0 -5.5294131,1.1762977 -7.430876,3.0778524 C 2.952262,6.5315866 1.7759646,9.1590005 1.7759646,12.061 c 0,2.901999 1.1762974,5.529414 3.0779914,7.430875 M 12.284832,0.21100046 c 6.544432,0 11.85,5.30542074 11.85,11.84999954 0,6.54444 -5.305568,11.85 -11.85,11.85 -6.5447191,0 -11.85000006,-5.30556 -11.85000006,-11.85 0,-6.5445788 5.30528096,-11.84999954 11.85000006,-11.84999954 z"
     id="path3390"
     inkscape:connector-curvature="0"
     style="fill:#ffffff" /><path
     class="st1"
     d="m 5.6232802,14.177797 0,-4.233642 c 0,-0.2819926 0.230844,-0.512698 0.5126971,-0.512698 l 3.51922,0 0,-3.5192643 c 0,-0.2819467 0.2308412,-0.5126976 0.5126947,-0.5126976 l 4.233831,0 c 0.282139,0 0.512705,0.2307045 0.512705,0.5126976 l 0,3.5192643 3.519221,0 c 0.282115,0 0.51268,0.2307054 0.51268,0.512698 l 0,4.233642 c 0,0.282181 -0.230565,0.512978 -0.51268,0.512978 l -3.519221,0 0,3.518939 c 0,0.281903 -0.230566,0.512699 -0.512705,0.512699 l -4.233831,0 c -0.2818535,0 -0.5126947,-0.230796 -0.5126947,-0.512699 l 0,-3.518939 -3.51922,0 c -0.2818531,4.7e-5 -0.5126971,-0.230797 -0.5126971,-0.512978"
     id="path3392"
     inkscape:connector-curvature="0"
     style="clip-rule:evenodd;fill:#ffffff;fill-rule:evenodd" /><text
     xml:space="preserve"
     style="font-style:normal;font-weight:normal;font-size:30.91812515px;line-height:125%;font-family:sans-serif;letter-spacing:0px;word-spacing:0px;fill:#ffffff;fill-opacity:1;stroke:none;stroke-width:1px;stroke-linecap:butt;stroke-linejoin:miter;stroke-opacity:1;"
     x="24.146933"
     y="23.224367"
     id="text3400"
     sodipodi:linespacing="125%"
     transform="scale(0.99575697,1.0042611)"><tspan
       sodipodi:role="line"
       id="tspan3402"
       x="24.146933"
       y="23.224367">AS</tspan></text>
</svg>