<?xml version="1.0" encoding="UTF-8" standalone="no"?>
<!-- Created with Inkscape (http://www.inkscape.org/) -->

<svg
   xmlns:dc="http://purl.org/dc/elements/1.1/"
   xmlns:cc="http://creativecommons.org/ns#"
   xmlns:rdf="http://www.w3.org/1999/02/22-rdf-syntax-ns#"
   xmlns:svg="http://www.w3.org/2000/svg"
   xmlns="http://www.w3.org/2000/svg"
   xmlns:sodipodi="http://sodipodi.sourceforge.net/DTD/sodipodi-0.dtd"
   xmlns:inkscape="http://www.inkscape.org/namespaces/inkscape"
   width="64mm"
   height="32mm"
   viewBox="0 0 226.77165 113.38583"
   id="svg2"
   version="1.1"
   inkscape:version="0.91 r13725"
   sodipodi:docname="supericon.svg">
  <defs
     id="defs4" />
  <sodipodi:namedview
     id="base"
     pagecolor="#ffffff"
     bordercolor="#666666"
     borderopacity="1.0"
     inkscape:pageopacity="0.0"
     inkscape:pageshadow="2"
     inkscape:zoom="1.4"
     inkscape:cx="422.38316"
     inkscape:cy="-63.75626"
     inkscape:document-units="px"
     inkscape:current-layer="layer1"
     showgrid="false"
     inkscape:window-width="1301"
     inkscape:window-height="744"
     inkscape:window-x="65"
     inkscape:window-y="24"
     inkscape:window-maximized="1" />
  <metadata
     id="metadata7">
    <rdf:RDF>
      <cc:Work
         rdf:about="">
        <dc:format>image/svg+xml</dc:format>
        <dc:type
           rdf:resource="http://purl.org/dc/dcmitype/StillImage" />
        <dc:title></dc:title>
      </cc:Work>
    </rdf:RDF>
  </metadata>
  <g
     inkscape:label="Layer 1"
     inkscape:groupmode="layer"
     id="layer1"
     transform="translate(0,-938.97638)">
    <g
       id="g3370"
       transform="matrix(1.994898,0,0,1.6512604,-14.188047,886.23619)">
      <g
         id="_x31_2_3D_Printing" />
      <g
         id="_x31_1_VR_Gear" />
      <g
         id="_x31_0_Virtual_reality" />
      <g
         id="_x39__Augmented_reality" />
      <g
         id="_x38__Teleport" />
      <g
         id="_x37__Glassess">
        <g
           id="g3346">
          <path
             id="path3348"
             d="m 101.9,32 -13.9,0 0,8 10.1,0 9.6,12 -79.4,0 9.6,-12 10.1,0 0,-8 -13.9,0 -18.1,22.6 0,9.4 -8,0 0,20 8,0 0,8 c 0,4.4 3.6,8 8,8 l 39.1,0 3.8,-15.1 C 67,84.3 67.5,84 68,84 c 0.5,0 1,0.3 1.1,0.9 l 3.8,15.1 39.1,0 c 4.4,0 8,-3.6 8,-8 L 120,54.6 101.9,32 Z M 16,72 38,72 c 1.1,0 2,0.9 2,2 0,1.1 -0.9,2 -2,2 l -22,0 0,-4 z M 79.1,92 76.8,82.9 C 75.8,78.8 72.1,76 67.9,76 63.7,76 60.1,78.8 59,82.9 L 56.9,92 24,92 24,84 38,84 C 43.5,84 48,79.5 48,74 48,68.5 43.5,64 38,64 l -14,0 0,-4 88,0 0,32 -32.9,0 z"
             inkscape:connector-curvature="0" />
          <path
             id="path3350"
             d="m 84,84 8,0 c 0,-6.6 5.4,-12 12,-12 l 0,-8 C 93,64 84,73 84,84 Z"
             inkscape:connector-curvature="0" />
          <path
             id="path3352"
             d="m 96,84 8,0 0,-8 c -4.4,0 -8,3.6 -8,8 z"
             inkscape:connector-curvature="0" />
        </g>
      </g>
      <g
         id="_x36__Folding_phone" />
      <g
         id="_x35__Drone" />
      <g
         id="_x34__Retina_scan" />
      <g
         id="_x33__Smartwatch" />
      <g
         id="_x32__Bionic_Arm" />
      <g
         id="_x31__Chip" />
      <g
         id="Guide"
         class="st1"
         style="display:none">
        <path
           id="path3361"
           d="M 120,8 120,120 8,120 8,8 120,8 m 8,-8 -128,0 0,128 128,0 0,-128 0,0 z"
           class="st2"
           inkscape:connector-curvature="0"
           style="display:inline;opacity:0.25;fill:#f45efd" />
      </g>
    </g>
    <path
       style="fill:#a0a0a0;stroke:none;stroke-width:1px;stroke-linecap:butt;stroke-linejoin:miter;stroke-opacity:1"
       d="m 26.668878,110.57473 c -2.694141,-1.16696 -6.04867,-4.06036 -7.375029,-6.36121 -0.452937,-0.78572 -0.987776,-5.285719 -1.188532,-10.000005 l -0.36501,-8.571428 -7.678572,-0.202736 -7.6785711,-0.202736 0,-16.047265 0,-16.047263 7.8571431,0 7.857143,0 0,-7.764518 0,-7.764518 17.999401,-18.664054 17.999402,-18.66405312 13.42917,0 13.42917,0 0,6.42857142 0,6.4285717 -9.876572,0 -9.876571,0 -9.409143,9.570673 c -5.175029,5.263871 -9.409143,9.763871 -9.409143,10 0,0.23613 35.703336,0.429327 79.340736,0.429327 l 79.34074,0 -9.51931,-9.990269 -9.51931,-9.990268 -10.17857,-0.0097 -10.17857,-0.0097 0,-6.4285717 0,-6.42857142 13.39286,-0.0326862 13.39285,-0.0326862 18.0173,18.4255436 18.0173,18.425543 0.0184,32.869904 0.0184,32.869908 -1.81252,2.66736 c -1.04515,1.53808 -3.30314,3.42271 -5.33339,4.45152 l -3.5209,1.78417 -41.27375,-0.006 -41.27374,-0.006 -3.12452,-10.52927 c -4.39526,-14.811553 -4.63224,-15.319517 -7.01766,-15.042546 -2.07107,0.240471 -2.11602,0.356079 -8.48932,21.834696 l -1.11273,3.75 -41.199316,-0.0279 c -35.196343,-0.0239 -41.56358,-0.1858 -43.699316,-1.11089 z m 74.192632,-15.8255 c 0.76778,-2.651786 1.89535,-6.589286 2.5057,-8.75 1.38776,-4.9128 4.25525,-8.427136 8.74838,-10.7218 4.98677,-2.546772 13.40552,-2.546772 18.39229,0 5.28645,2.699821 7.04164,5.373064 10.11736,15.409221 l 2.72264,8.884007 33.08907,0 33.08907,0 0,-26.785714 0,-26.785714 -88.21428,0 -88.21429,0 0,3.514771 0,3.514771 16.964285,0.235229 c 15.930437,0.220893 17.181938,0.335506 20.535715,1.880667 7.242321,3.336705 10.698785,8.505105 10.209714,15.26644 -0.389664,5.387093 -3.045129,9.264279 -8.424,12.299707 l -3.928571,2.216986 -17.5,0.357143 -17.500001,0.357143 -0.204437,6.964286 -0.204437,6.964285 33.209905,0 33.209905,0 1.395982,-4.821428 z M 64.367088,72.030158 c 1.858028,-1.301416 2.049648,-3.323887 0.465055,-4.908479 -0.974257,-0.974258 -4.18058,-1.122449 -24.285714,-1.122449 l -23.163265,0 0,3.571428 0,3.571429 22.69821,0 c 19.387604,0 22.929752,-0.162179 24.285714,-1.111929 z"
       id="path3409"
       inkscape:connector-curvature="0"
       transform="translate(-7.629395e-6,938.97638)" />
    <path
       style="fill:#ffffff;stroke:none;stroke-width:1px;stroke-linecap:butt;stroke-linejoin:miter;stroke-opacity:1"
       d="M 51.668878,111.02164 C 34.80843,110.76195 26.574867,110.37863 25.59745,109.80786 24.811735,109.34903 23.053872,107.8147 21.691087,106.39824 19.224619,103.83462 19.210132,103.7806 18.520965,94.576701 L 17.828634,85.330551 10.28447,85.129173 2.7403067,84.927801 2.54807,69.034944 2.3558331,53.142087 l 7.8708079,0 7.870809,0 0,-7.58457 0,-7.58457 18.303132,-18.844002 18.303134,-18.84400112 13.125438,0 13.125439,0 0,6.42857142 0,6.4285717 -10.287935,0 -10.287933,0 -8.951677,9.464285 c -4.923423,5.205358 -8.713865,9.706775 -8.423203,10.003149 0.29066,0.296375 36.009326,0.457089 79.374815,0.357143 l 78.84635,-0.18172 -9.24235,-9.773499 -9.24235,-9.773498 -10.53572,-0.04793 -10.53571,-0.04793 0,-6.4285717 0,-6.42857142 13.1232,0 13.12321,0 18.29117,18.57526312 18.29118,18.575264 0.19276,32.496387 c 0.10602,17.873015 0.0204,32.576642 -0.19018,32.674732 -0.21062,0.0981 -1.12363,1.2331 -2.02892,2.52225 -0.90529,1.28914 -3.30439,3.29505 -5.33134,4.45758 l -3.68537,2.11369 -40.86218,0.006 -40.86218,0.006 -2.21732,-7.32143 c -5.24661,-17.323996 -5.72036,-18.316182 -8.77137,-18.370146 -1.62656,-0.02879 -2.42711,1.88675 -6.32439,15.132626 l -3.10541,10.5551 -17.500005,-0.15397 c -9.625,-0.0847 -28.589285,-0.32476 -42.142857,-0.53351 z M 101.59474,93.320658 c 3.18984,-11.838993 5.12795,-14.92835 11.14557,-17.766128 7.46497,-3.520307 18.40871,-1.522407 22.73578,4.150671 1.01987,1.337122 3.14185,6.273493 4.7155,10.969722 l 2.86119,8.538592 33.05805,0.185522 33.05805,0.185514 0,-26.792657 0,-26.792664 -88.03572,0 -88.03571,0 0,3.46288 0,3.462882 7.611116,0.46569 c 4.186114,0.25613 11.498614,0.467483 16.25,0.469674 10.034676,0.0046 12.853281,0.632404 16.947334,3.774609 4.697807,3.605584 5.872785,5.643919 6.198064,10.752248 0.442129,6.943538 -2.357986,11.344667 -9.517561,14.959402 -1.656116,0.836143 -6.237035,1.20875 -19.821428,1.612265 l -17.667525,0.524793 0,7.043492 0,7.043493 33.406662,0 33.406659,0 1.683969,-6.25 z m -37.227652,-21.2905 c 1.929488,-1.351469 2.084472,-4.286125 0.27743,-5.253225 -0.772429,-0.413392 -10.739102,-0.724364 -24.285714,-0.757744 l -22.97564,-0.05661 0,3.589755 0,3.589757 22.69821,0 c 19.387604,0 22.929752,-0.162179 24.285714,-1.111929 z"
       id="path3411"
       inkscape:connector-curvature="0"
       transform="translate(-7.629395e-6,938.97638)" />
    <path
       style="fill:#ffffff"
       d="m 154.08035,81.908486 c 1.05493,-7.69654 6.88799,-16.266035 14.52022,-21.332023 4.86806,-3.231231 13.86215,-6.413129 20.03259,-7.087058 l 4.46429,-0.487585 0,6.498705 0,6.498705 -2.06762,0 c -1.13719,0 -4.22754,0.667133 -6.86745,1.482518 -3.91331,1.208697 -5.56533,2.231147 -8.94431,5.535715 -3.35013,3.276344 -4.37095,4.840387 -5.32609,8.160338 l -1.18161,4.107143 -7.54641,0 -7.5464,0 0.46279,-3.376458 z"
       id="path3413"
       inkscape:connector-curvature="0"
       transform="translate(-7.629395e-6,938.97638)" />
    <path
       style="fill:#ffffff"
       d="m 178.09627,1023.1888 c 1.30195,-5.3086 6.00948,-9.7051 11.4889,-10.7297 l 2.79799,-0.5232 0,6.877 0,6.877 -7.45014,0 -7.45014,0 0.61339,-2.5011 z"
       id="path3415"
       inkscape:connector-curvature="0" />
  </g>
  <style
     id="style3338"
     type="text/css">
	.st0{fill:none;stroke:#000000;stroke-width:8;stroke-miterlimit:10;}
	.st1{display:none;}
	.st2{display:inline;opacity:0.25;fill:#F45EFD;}
</style>
</svg>
